<?xml version="1.0" encoding="UTF-8" standalone="no"?>
<!-- Created with Inkscape (http://www.inkscape.org/) -->

<svg
   xmlns:dc="http://purl.org/dc/elements/1.1/"
   xmlns:cc="http://creativecommons.org/ns#"
   xmlns:rdf="http://www.w3.org/1999/02/22-rdf-syntax-ns#"
   xmlns:svg="http://www.w3.org/2000/svg"
   xmlns="http://www.w3.org/2000/svg"
   xmlns:sodipodi="http://sodipodi.sourceforge.net/DTD/sodipodi-0.dtd"
   xmlns:inkscape="http://www.inkscape.org/namespaces/inkscape"
   width="210mm"
   height="297mm"
   viewBox="0 0 210 297"
   version="1.1"
   id="svg8"
   inkscape:version="0.92.2 (5c3e80d, 2017-08-06)"
   sodipodi:docname="logo.svg">
  <defs
     id="defs2" />
  <sodipodi:namedview
     id="base"
     pagecolor="#ffffff"
     bordercolor="#666666"
     borderopacity="1.0"
     inkscape:pageopacity="0.0"
     inkscape:pageshadow="2"
     inkscape:zoom="1.4142136"
     inkscape:cx="-619.74316"
     inkscape:cy="606.85536"
     inkscape:document-units="mm"
     inkscape:current-layer="layer1"
     showgrid="false"
     inkscape:window-width="1920"
     inkscape:window-height="1016"
     inkscape:window-x="0"
     inkscape:window-y="30"
     inkscape:window-maximized="1" />
  <metadata
     id="metadata5">
    <rdf:RDF>
      <cc:Work
         rdf:about="">
        <dc:format>image/svg+xml</dc:format>
        <dc:type
           rdf:resource="http://purl.org/dc/dcmitype/StillImage" />
        <dc:title></dc:title>
      </cc:Work>
    </rdf:RDF>
  </metadata>
  <g
     inkscape:label="Layer 1"
     inkscape:groupmode="layer"
     id="layer1">
    <g
       id="g1147">
      <text
         id="text817"
         y="183.03343"
         x="-167.07837"
         style="font-style:normal;font-weight:normal;font-size:23.7849369px;line-height:1.25;font-family:sans-serif;letter-spacing:0px;word-spacing:0px;fill:#000000;fill-opacity:1;stroke:none;stroke-width:0.59462339"
         xml:space="preserve"><tspan
           style="font-style:normal;font-variant:normal;font-weight:normal;font-stretch:normal;font-family:'Noto Sans Bengali UI';-inkscape-font-specification:'Noto Sans Bengali UI';stroke-width:0.59462339"
           y="183.03343"
           x="-167.07837"
           id="tspan815"
           sodipodi:role="line">যন্তর-মন্তর</tspan></text>
      <path
         transform="scale(0.26458333)"
         d="m -634.53711,633.68555 v 6.41015 h 7.19922 l -1.97656,4.34571 c 3.6286,0.76083 6.96446,1.78469 10.00781,3.07226 3.07261,1.28757 5.85249,2.85175 8.33984,4.69531 -3.86271,1.87283 -7.32973,3.65822 -10.40234,5.35547 -3.04335,1.69726 -5.69206,3.30645 -7.94531,4.82813 l 3.24804,8.16601 c 7.08164,1.02421 13.30113,2.99949 18.65625,5.92579 5.35513,2.92629 10.24145,7.29971 14.66016,13.12304 h 6.89258 V 640.0957 h 9.43554 48.10938 c 2.83851,3.33598 4.25781,6.59745 4.25781,9.78711 0,2.07767 -0.55597,3.65946 -1.66797,4.74219 -1.11199,1.08273 -2.75055,1.62305 -4.91601,1.62305 -1.66799,0 -3.17539,-0.35043 -4.52149,-1.05274 -1.31683,-0.70231 -3.11592,-2.07854 -5.39843,-4.12695 -2.51662,-2.25325 -4.60936,-3.70192 -6.27735,-4.3457 -1.66799,-0.67305 -3.49644,-1.00977 -5.48633,-1.00977 -2.75071,0 -5.1371,0.89269 -7.15625,2.67773 -1.98988,1.75578 -2.98437,4.11281 -2.98437,7.06836 0,4.00903 2.06337,7.79711 6.18945,11.36719 l 4.91602,-4.91601 c -1.37536,-1.22905 -2.34049,-2.29598 -2.89649,-3.20313 -0.55599,-0.90715 -0.83398,-1.82921 -0.83398,-2.76562 0,-1.17052 0.36608,-2.09258 1.09766,-2.76563 0.73157,-0.70231 1.66733,-1.05273 2.80859,-1.05273 0.76084,0 1.47734,0.17423 2.15039,0.52539 0.70231,0.35115 2.00416,1.37501 3.90625,3.07226 3.10187,2.77998 5.5607,4.5223 7.375,5.22461 -2.69219,0.49747 -4.71054,1.4489 -6.05664,2.85352 -1.3461,1.37536 -2.01953,3.18816 -2.01953,5.4414 0,2.04841 0.48159,4.11179 1.44726,6.18946 l 6.45313,-1.09766 c -0.29263,-0.52673 -0.51189,-1.16885 -0.6582,-1.92969 -0.14632,-0.76083 -0.21875,-1.37554 -0.21875,-1.84375 0,-2.77998 1.87152,-4.16992 5.61718,-4.16992 2.77998,0 5.03325,0.94947 6.75977,2.85156 1.75578,1.9021 2.63476,4.30219 2.63476,7.19922 0,3.1604 -1.09824,5.69166 -3.29296,7.59375 -2.16546,1.87283 -5.29577,2.8086 -9.39258,2.8086 -6.52564,0 -12.20286,-1.94592 -17.03125,-5.83789 -4.82839,-3.92124 -9.74408,-10.40306 -14.74805,-19.44532 l -5.92578,3.46875 c 5.17954,9.56899 10.8274,16.70859 16.94336,21.41993 6.11596,4.71133 13.16746,7.0664 21.15625,7.0664 5.96964,0 10.63671,-1.55047 14.00195,-4.65234 3.39451,-3.13114 5.0918,-7.25594 5.0918,-12.37695 0,-3.36525 -0.83397,-6.33697 -2.50195,-8.91211 -1.66799,-2.60441 -4.03872,-4.5053 -7.11133,-5.70508 3.01408,-0.58526 5.32608,-1.88711 6.93554,-3.90625 1.63873,-2.04841 2.45899,-4.74215 2.45899,-8.07813 0,-3.3945 -1.01015,-6.65597 -3.0293,-9.78711 h 10.22852 37.30859 v 3.02735 c -5.55996,1.75577 -11.25089,3.96597 -17.07422,6.6289 -5.82333,2.66293 -11.76288,5.77953 -17.82031,9.34961 l 3.51172,8.64649 c 6.84753,1.14125 13.05136,3.67251 18.61133,7.59375 5.58922,3.92123 9.84518,8.6764 12.77148,14.26562 h 6.89258 V 640.0957 h 9.4375 v -6.41015 h -53.63867 -66.41407 z m 206.83008,0 v 6.41015 h 4.56641 l -0.79102,5.13477 c 6.11596,0.76084 10.5207,1.88845 13.21289,3.38086 2.72146,1.46315 4.50489,3.86129 5.35352,7.19726 -0.23411,0 -0.46707,-0.0137 -0.70118,-0.043 h -0.74609 c -2.51661,0 -4.90105,0.54032 -7.1543,1.62305 -2.22398,1.08273 -3.9663,2.6195 -5.22461,4.60938 -1.22904,1.98988 -1.84375,4.27251 -1.84375,6.84765 0,3.13114 0.99645,5.98541 2.98633,8.56055 2.01915,2.57514 4.91453,4.65222 8.68945,6.23242 l 3.46876,-6.4082 c -2.66293,-1.0242 -4.62451,-2.18118 -5.88282,-3.46875 -1.2583,-1.31683 -1.88672,-2.8673 -1.88672,-4.65234 0,-2.1362 0.71651,-3.80413 2.15039,-5.00391 1.46315,-1.22905 3.39536,-1.84375 5.79493,-1.84375 2.89703,0 6.01363,1.09825 9.34961,3.29297 3.36524,2.19472 6.7148,5.36809 10.05078,9.52343 v 14.5293 h 6.89257 V 640.0957 h 9.4375 47.97657 c 2.8385,3.33598 4.25781,6.59745 4.25781,9.78711 0,2.07767 -0.55793,3.65946 -1.66992,4.74219 -1.11199,1.08273 -2.75056,1.62305 -4.91602,1.62305 -1.66799,0 -3.17343,-0.35043 -4.51953,-1.05274 -1.31683,-0.70231 -3.11788,-2.07854 -5.40039,-4.12695 -2.51661,-2.25325 -4.6074,-3.70192 -6.27539,-4.3457 -1.66799,-0.67305 -3.4984,-1.00977 -5.48828,-1.00977 -2.75072,0 -5.13515,0.89269 -7.1543,2.67773 -1.98988,1.75578 -2.98437,4.11281 -2.98437,7.06836 0,4.00903 2.06337,7.79711 6.18945,11.36719 l 4.91602,-4.91601 c -1.37536,-1.22905 -2.34245,-2.29598 -2.89844,-3.20313 -0.556,-0.90715 -0.83399,-1.82921 -0.83399,-2.76562 0,-1.17052 0.36609,-2.09258 1.09766,-2.76563 0.73157,-0.70231 1.66929,-1.05273 2.81055,-1.05273 0.76083,0 1.47734,0.17423 2.15039,0.52539 0.70231,0.35115 2.00415,1.37501 3.90625,3.07226 3.10187,2.77998 5.56069,4.5223 7.375,5.22461 -2.6922,0.49747 -4.7125,1.4489 -6.0586,2.85352 -1.34609,1.37536 -2.01953,3.18816 -2.01953,5.4414 0,2.04841 0.48354,4.11179 1.44922,6.18946 l 6.45313,-1.09766 c -0.29263,-0.52673 -0.51189,-1.16885 -0.65821,-1.92969 -0.14631,-0.76083 -0.2207,-1.37554 -0.2207,-1.84375 0,-2.77998 1.87348,-4.16992 5.61914,-4.16992 2.77998,0 5.03325,0.94947 6.75977,2.85156 1.75577,1.9021 2.63281,4.30219 2.63281,7.19922 0,3.1604 -1.09629,5.69166 -3.29102,7.59375 -2.16546,1.87283 -5.29771,2.8086 -9.39453,2.8086 -6.52564,0 -12.20286,-1.94592 -17.03125,-5.83789 -4.82839,-3.92124 -9.74408,-10.40306 -14.74804,-19.44532 l -5.92579,3.46875 c 5.17955,9.56899 10.8274,16.70859 16.94336,21.41993 6.11596,4.71133 13.16942,7.0664 21.15821,7.0664 5.96964,0 10.63671,-1.55047 14.00195,-4.65234 3.3945,-3.13114 5.0918,-7.25594 5.0918,-12.37695 0,-3.36525 -0.83397,-6.33697 -2.50196,-8.91211 -1.66799,-2.60441 -4.03871,-4.5053 -7.11133,-5.70508 3.01409,-0.58526 5.32609,-1.88711 6.93555,-3.90625 1.63873,-2.04841 2.45703,-4.74215 2.45703,-8.07813 0,-3.3945 -1.0082,-6.65597 -3.02734,-9.78711 h 10.22656 37.31055 v 3.02735 c -5.55996,1.75577 -11.25089,3.96597 -17.07422,6.6289 -5.82333,2.66293 -11.76483,5.77953 -17.82227,9.34961 l 3.51172,8.64649 c 6.84754,1.14125 13.05137,3.67251 18.61133,7.59375 5.58923,3.92123 9.84714,8.6764 12.77344,14.26562 h 6.89062 V 640.0957 h 9.4375 v -6.41015 h -53.63867 -66.2793 z m -193.00391,6.41015 H -592.75 v 34.14844 c 0,0.87789 0.0587,3.04502 0.17578,6.49805 -4.12608,-4.56502 -8.50145,-8.09273 -13.125,-10.58008 -4.59428,-2.51662 -9.6705,-4.28634 -15.23047,-5.31055 2.07767,-1.2583 4.60893,-2.63454 7.59375,-4.12695 3.01409,-1.52167 6.48111,-3.16024 10.40235,-4.91602 l -0.43946,-5.0039 c -1.98988,-2.01915 -4.59357,-4.02379 -7.8125,-6.01367 -3.18966,-2.01915 -6.36499,-3.58332 -9.52539,-4.69532 z m 203.4961,0 h 30.90039 v 19.88282 c 0,2.75071 0.0587,4.93155 0.17578,6.54101 -4.27239,-4.62355 -8.51465,-7.72449 -12.72852,-9.30469 0.0293,-0.17557 0.043,-0.33806 0.043,-0.48437 v -0.48242 c 0,-4.18461 -1.57983,-7.71036 -4.74023,-10.57813 -3.1604,-2.86777 -7.71001,-4.72559 -13.65039,-5.57422 z m -55.48438,10.05078 v 22.42969 c 0,2.42883 0.10375,4.85829 0.3086,7.28711 -2.45809,-4.09681 -6.11696,-7.71066 -10.97461,-10.8418 -4.82839,-3.1604 -10.11017,-5.41366 -15.84571,-6.75976 3.92124,-2.34104 8.09106,-4.52187 12.50977,-6.54102 4.41871,-2.01914 9.08577,-3.87696 14.00195,-5.57422 z m 206.30469,0 v 22.42969 c 0,2.42883 0.1018,4.85829 0.30664,7.28711 -2.45809,-4.09681 -6.115,-7.71066 -10.97266,-10.8418 -4.82839,-3.1604 -10.11016,-5.41366 -15.8457,-6.75976 3.92124,-2.34104 8.09106,-4.52187 12.50977,-6.54102 4.4187,-2.01914 9.08577,-3.87696 14.00195,-5.57422 z m -186.55078,9.08594 v 7.375 h 21.77148 v -7.375 z m -41.17383,20.32422 c -1.55094,0 -2.85278,0.51095 -3.90625,1.53516 -1.0242,1.0242 -1.53711,2.28298 -1.53711,3.77539 0,1.52167 0.54227,2.78045 1.625,3.77539 1.08273,0.99494 2.35521,1.49219 3.81836,1.49219 1.46315,0 2.70626,-0.49725 3.73047,-1.49219 1.0242,-0.99494 1.53711,-2.25372 1.53711,-3.77539 0,-1.49241 -0.51291,-2.75119 -1.53711,-3.77539 -1.02421,-1.02421 -2.26732,-1.53516 -3.73047,-1.53516 z m 206.30469,0 c -1.55094,0 -2.85279,0.51095 -3.90625,1.53516 -1.02421,1.0242 -1.53711,2.28298 -1.53711,3.77539 0,1.52167 0.54227,2.78045 1.625,3.77539 1.08273,0.99494 2.35521,1.49219 3.81836,1.49219 1.46315,0 2.70626,-0.49725 3.73047,-1.49219 1.0242,-0.99494 1.5371,-2.25372 1.5371,-3.77539 0,-1.49241 -0.5129,-2.75119 -1.5371,-3.77539 -1.02421,-1.02421 -2.26732,-1.53516 -3.73047,-1.53516 z"
         style="font-style:normal;font-weight:normal;font-size:23.7849369px;line-height:1.25;font-family:sans-serif;letter-spacing:0px;word-spacing:0px;fill:#ffffff;fill-opacity:1;stroke:#000000;stroke-width:0.99999994;stroke-miterlimit:4;stroke-dasharray:none;stroke-opacity:1"
         id="text817-3" />
    </g>
  </g>
</svg>
