<?xml version="1.0" encoding="utf-8"?>
<!-- Generator: Adobe Illustrator 21.0.2, SVG Export Plug-In . SVG Version: 6.00 Build 0)  -->
<svg version="1.1" id="Layer_1" xmlns="http://www.w3.org/2000/svg" xmlns:xlink="http://www.w3.org/1999/xlink" x="0px" y="0px"
	 viewBox="0 0 793 269.3" style="enable-background:new 0 0 793 269.3;" xml:space="preserve">
<style type="text/css">
	.st0{fill:none;stroke:#DBDBDB;stroke-width:5;stroke-linecap:round;stroke-miterlimit:10;}
	.st1{fill:#DBDBDB;}
	.st2{fill:none;stroke:#DBDBDB;stroke-width:0.75;stroke-linecap:round;stroke-miterlimit:10;}
</style>
<g>
	<path d="M136.5,195.1H75c-3.4,0-6.3-1.2-8.7-3.6c-2.4-2.4-3.6-5.3-3.6-8.7V146c0-3.4,1.2-6.3,3.6-8.7c2.4-2.4,5.3-3.6,8.7-3.6h21.4
		c0.9,0,1.7-0.3,2.3-0.9c0.6-0.6,0.9-1.3,0.9-2.1v-9.2c0-1.7-0.6-3.2-1.8-4.4c-1.2-1.2-2.6-1.8-4.4-1.8H75c-3.4,0-6.3-1.2-8.7-3.7
		c-2.4-2.4-3.6-5.4-3.6-8.8V87.3c0-2.1-1.1-3.2-3.2-3.2h-6.1c-0.8,0-1.5-0.3-2.1-0.8c-0.6-0.5-0.9-1.3-0.9-2.2v-6
		c0-0.9,0.3-1.7,0.9-2.3c0.6-0.6,1.3-0.9,2.1-0.9H155h9.3c0.8,0,1.5,0.3,2.1,0.9c0.6,0.6,0.9,1.4,0.9,2.3v6c0,0.9-0.3,1.7-0.9,2.2
		c-0.6,0.5-1.3,0.8-2.1,0.8h-6.1c-2.1,0-3.2,1.1-3.2,3.2v104.9c0,0.8-0.3,1.5-0.9,2.1c-0.6,0.6-1.3,0.9-2.1,0.9H136.5z M136.5,182.8
		v-30.7v-0.2v-12.3v0.2V90.2v-3c0-0.9-0.3-1.7-0.9-2.3c-0.6-0.6-1.3-0.9-2.1-0.9H90.5c-0.8,0-1.5,0.3-2.1,0.9
		c-0.6,0.6-0.9,1.4-0.9,2.3v9.4c0,1.9,0.6,3.4,1.8,4.5c1.2,1.1,2.6,1.7,4.3,1.7h12.2c3.4,0,6.3,1.2,8.7,3.7c2.4,2.4,3.5,5.4,3.5,8.8
		v24.5c0,1.7-0.6,3.2-1.8,4.3c-1.2,1.2-2.6,1.8-4.3,1.8H93.6c-1.7,0-3.2,0.6-4.3,1.8s-1.8,2.6-1.8,4.4v24.6c0,1.7,0.6,3.2,1.8,4.4
		s2.6,1.8,4.3,1.8H136.5z"/>
	<path d="M272,84l-0.2,71.9l-23.6-12.5v-30.9c-4.2-7.2-9.7-10.8-16.5-10.8h-11.5c-4.8,0-7.1,2.9-7.1,8.6c0,2.9,1.2,4.8,3.6,5.6
		c1.1,0.3,3.4,0.4,6.9,0.4v11.4h-11.7c-14,0-21-4.8-21-14.3v-10.3c0-4.1,1.8-7.3,5.4-9.5c2.9-2,6.6-3,11.1-3h24.4
		c7.3,0,12.8,3.2,16.5,9.7V84h-87V71.8H291V84H272z"/>
	<path d="M251,199.1h-59.7c-6.7,0-12.3-2.2-16.7-6.5c-4.4-4.4-6.5-9.9-6.5-16.7v-34.7h22.8v31.5c0,9.8,5.6,14.7,16.9,14.7h28.8
		c8.2,0,12.3-3.3,12.3-9.9v-24.2c0-5.8-2.6-8.7-7.9-8.7c-8.6,0-12.9,3.5-12.9,10.5c0-0.3,0.1,0.6,0.2,2.6c0.1,2,0.3,5.2,0.6,9.5
		h-22.8v-19c0-4.6,1.9-8.3,5.6-11.1c3.3-2.4,7.4-3.6,12.3-3.6h26.2c14.4,0,21.6,6.5,21.6,19.4v27.6
		C271.8,192.9,264.9,199.1,251,199.1z"/>
	<path d="M374.5,75v6c0,0.8-0.3,1.5-0.8,2.1c-0.5,0.6-1.3,0.9-2.2,0.9h-13.1V188c0,2-0.1,3.4-0.2,4.4c-0.1,0.9-0.3,1.6-0.6,2
		c-0.3,0.4-0.6,0.6-1,0.6c-0.4,0-0.8,0-1.2,0h-52.3c-3.4,0-6.4-1.2-8.8-3.6c-2.4-2.4-3.6-5.3-3.6-8.7v-73.8c0-3.4,1.2-6.3,3.6-8.7
		c2.4-2.4,5.3-3.6,8.7-3.6h33.7c0.9,0,1.7-0.3,2.3-0.9c0.6-0.6,0.9-1.3,0.9-2.1v-6.3c0-2.1-1.1-3.2-3.2-3.2h-59.1
		c-0.8,0-1.5-0.3-2.2-0.9c-0.7-0.6-1-1.3-1-2.1v-6c0-0.9,0.3-1.7,1-2.3c0.7-0.6,1.4-0.9,2.2-0.9h93.8
		C373.5,71.8,374.5,72.9,374.5,75z M340,112.1c0-2.1-1.1-3.2-3.1-3.2h-15.1c-1.8,0-3.3,0.6-4.4,1.8s-1.7,2.6-1.7,4.4v61.5
		c0,4.1,2,6.1,6.1,6.1h15.1c0.9,0,1.7-0.3,2.3-0.9c0.6-0.6,0.9-1.3,0.9-2.1V112.1z M321.6,211.6v-8.7c0-1.2,0.5-1.8,1.6-1.8h15.1
		c1.2,0,1.8,0.6,1.8,1.8v8.7c0,1.2-0.6,1.8-1.8,1.8h-15.1C322.1,213.4,321.6,212.8,321.6,211.6z"/>
	<path d="M654.1,84l-0.2,71.9l-23.6-12.5v-30.9c-4.2-7.2-9.7-10.8-16.5-10.8h-11.5c-4.8,0-7.1,2.9-7.1,8.6c0,2.9,1.2,4.8,3.6,5.6
		c1.1,0.3,3.4,0.4,6.9,0.4v11.4H594c-14,0-21-4.8-21-14.3v-10.3c0-4.1,1.8-7.3,5.4-9.5c2.9-2,6.6-3,11.1-3h24.4
		c7.3,0,12.8,3.2,16.5,9.7V84h-87V71.8h129.8V84H654.1z"/>
	<path d="M633.1,199.1h-59.7c-6.7,0-12.3-2.2-16.7-6.5c-4.4-4.4-6.5-9.9-6.5-16.7v-34.7h22.8v31.5c0,9.8,5.6,14.7,16.9,14.7h28.8
		c8.2,0,12.3-3.3,12.3-9.9v-24.2c0-5.8-2.6-8.7-7.9-8.7c-8.6,0-12.9,3.5-12.9,10.5c0-0.3,0.1,0.6,0.2,2.6c0.1,2,0.3,5.2,0.6,9.5
		h-22.8v-19c0-4.6,1.9-8.3,5.6-11.1c3.3-2.4,7.4-3.6,12.3-3.6h26.2c14.4,0,21.6,6.5,21.6,19.4v27.6C654,192.9,647,199.1,633.1,199.1
		z"/>
	<path d="M756.7,75v6c0,0.8-0.3,1.5-0.8,2.1c-0.5,0.6-1.3,0.9-2.2,0.9h-13.1V188c0,2-0.1,3.4-0.2,4.4c-0.1,0.9-0.3,1.6-0.6,2
		c-0.3,0.4-0.6,0.6-1,0.6c-0.4,0-0.8,0-1.2,0h-52.3c-3.4,0-6.4-1.2-8.8-3.6s-3.6-5.3-3.6-8.7v-73.8c0-3.4,1.2-6.3,3.6-8.7
		c2.4-2.4,5.3-3.6,8.7-3.6H719c0.9,0,1.7-0.3,2.3-0.9c0.6-0.6,0.9-1.3,0.9-2.1v-6.3c0-2.1-1.1-3.2-3.2-3.2h-59.1
		c-0.8,0-1.5-0.3-2.2-0.9c-0.7-0.6-1-1.3-1-2.1v-6c0-0.9,0.3-1.7,1-2.3c0.7-0.6,1.4-0.9,2.2-0.9h93.8
		C755.7,71.8,756.7,72.9,756.7,75z M722.2,112.1c0-2.1-1.1-3.2-3.1-3.2h-15.1c-1.8,0-3.3,0.6-4.4,1.8c-1.1,1.2-1.7,2.6-1.7,4.4v61.5
		c0,4.1,2,6.1,6.1,6.1H719c0.9,0,1.7-0.3,2.3-0.9c0.6-0.6,0.9-1.3,0.9-2.1V112.1z M703.7,211.6v-8.7c0-1.2,0.5-1.8,1.6-1.8h15.1
		c1.2,0,1.8,0.6,1.8,1.8v8.7c0,1.2-0.6,1.8-1.8,1.8h-15.1C704.2,213.4,703.7,212.8,703.7,211.6z"/>
	<path d="M371,137.3v-15.3h59.5v15.3H371z"/>
	<path d="M542.8,71.8c2.1,0,3.2,1.1,3.2,3.2v6c0,0.8-0.3,1.5-0.9,2.1c-0.6,0.6-1.4,0.9-2.3,0.9h-6.1c-0.8,0-1.5,0.3-2.1,0.9
		c-0.6,0.6-0.9,1.4-0.9,2.3v104.9c0,0.8-0.3,1.5-0.9,2.1c-0.6,0.6-1.3,0.9-2.3,0.9h-12.2c-0.8,0-1.5-0.3-2.2-0.9
		c-0.7-0.6-1-1.3-1-2.1v-40.1c0-1.7-0.6-3.2-1.7-4.4c-1.1-1.2-2.5-1.8-4.2-1.8h-36.9c-1.7,0-3.2,0.6-4.3,1.8
		c-1.2,1.2-1.8,2.6-1.8,4.4v12.3c0,1.7,0.6,3.2,1.8,4.4c1.2,1.2,2.6,1.8,4.4,1.8h15.5c0.8,0,1.5,0.3,2.1,0.9
		c0.6,0.6,0.9,1.3,0.9,2.1v6.3c0,0.8-0.3,1.5-0.9,2.1c-0.6,0.6-1.3,0.9-2.1,0.9h-34c-3.5,0-6.4-1.2-8.8-3.6
		c-2.4-2.4-3.6-5.3-3.6-8.7V146c0-3.4,1.2-6.3,3.6-8.7s5.3-3.6,8.7-3.6h21.6c0.8,0,1.5-0.3,2.1-0.9c0.6-0.6,0.9-1.4,0.9-2.3v-9.1
		c0-4.1-2.1-6.1-6.1-6.1h-18.4c-3.4,0-6.3-1.2-8.7-3.7c-2.4-2.4-3.6-5.4-3.6-8.8V87.3c0-0.9-0.3-1.7-0.9-2.3
		c-0.6-0.6-1.3-0.9-2.1-0.9h-6.1c-0.9,0-1.7-0.3-2.3-0.9c-0.6-0.6-0.9-1.3-0.9-2.1v-6c0-2.2,1.1-3.2,3.2-3.2h101.3H542.8z
		 M509.3,133.7c1.7,0,3.1,0.6,4.3,1.8c1.1,1.2,1.7,2.6,1.7,4.4V87.3c0-2.1-1-3.2-3-3.2h-42.9c-2.1,0-3.2,1.1-3.2,3.2v9.4
		c0,1.7,0.6,3.2,1.8,4.4s2.6,1.8,4.3,1.8h12.2c3.4,0,6.3,1.2,8.7,3.6c2.4,2.4,3.5,5.4,3.5,8.8v15.4c0.1,0.8,0.5,1.5,1.1,2.1
		c0.6,0.6,1.4,0.9,2.3,0.9H509.3z"/>
	<polyline class="st0" points="500.4,254.2 201,254.2 177.5,230.6 50.5,230.6 15.2,230.6 15.2,125.5 	"/>
	<circle class="st1" cx="515.3" cy="254.2" r="15.2"/>
	<circle class="st1" cx="777.8" cy="196" r="15.2"/>
	<polyline class="st0" points="213.6,15.2 605.3,15.2 628.8,38.7 777.8,38.7 777.8,145.8 	"/>
	<circle class="st1" cx="198.7" cy="15.2" r="15.2"/>
	<polyline class="st2" points="53.9,80.5 75.2,80.5 75.2,101.3 82.8,108.9 99.1,108.9 108.9,118.7 108.9,139.6 87.5,139.6 
		75.3,151.8 75.3,177.4 83.7,185.8 147.3,185.8 147.3,80.5 367.1,80.5 	"/>
	<polyline class="st2" points="264.2,80.5 264.2,182.6 252.4,194.4 192,194.4 180.5,182.9 180.5,151.8 	"/>
	<polyline class="st2" points="351.1,87.9 351.1,180.2 342.5,188.8 310.9,188.8 301.6,179.5 301.6,113.9 312.7,102.8 340,102.8 	"/>
	<polyline class="st2" points="264.2,151.8 251.5,139.2 226.1,139.2 218.2,147.1 218.2,160.7 	"/>
	<polyline class="st2" points="264.2,121.4 241.2,98.4 208,98.4 202.2,104.1 202.2,120.2 218.2,120.2 	"/>
	<line class="st2" x1="75.2" y1="80.5" x2="147.3" y2="80.5"/>
	<line class="st2" x1="433.9" y1="80.5" x2="748.6" y2="80.5"/>
	<polyline class="st2" points="733.9,80.5 733.9,182.6 727.2,189.3 694.2,189.3 685,180 685,112 693.9,103 733.9,103.3 	"/>
	<polyline class="st2" points="645.1,80.5 645.1,182.6 637.1,190.7 575.3,190.7 561.8,177.2 561.8,145.8 	"/>
	<polyline class="st2" points="645.1,155.9 629.3,140.2 608.3,140.2 601.2,147.2 601.2,160.7 	"/>
	<polyline class="st2" points="645.1,121.4 620.9,97.1 591.3,97.1 585.3,103.2 585.3,118.7 594.8,118.7 	"/>
	<line class="st2" x1="526.8" y1="80.5" x2="526.8" y2="188.8"/>
	<polyline class="st2" points="526.8,155.9 509.8,139 461.1,139 452.4,147.7 452.4,175.5 481.3,175.5 	"/>
	<polyline class="st2" points="487.6,138.4 487.6,121.4 476.9,110.7 462.9,110.7 454,101.7 454,80.5 	"/>
	<line class="st2" x1="324.1" y1="207.2" x2="336.9" y2="207.2"/>
	<line class="st2" x1="706.5" y1="207.2" x2="719.4" y2="207.2"/>
	<polyline class="st0" points="561.8,254.2 777.8,254.2 777.8,211.3 	"/>
	<circle class="st1" cx="15.2" cy="73.3" r="15.2"/>
	<polyline class="st0" points="152.5,15.2 15.2,15.2 15.2,58.1 	"/>
	<line class="st0" x1="233.2" y1="30.3" x2="591.3" y2="30.3"/>
	<line class="st0" x1="30.3" y1="30.3" x2="125.7" y2="30.3"/>
	<line class="st0" x1="213.9" y1="242" x2="470.8" y2="242"/>
	<line class="st0" x1="577.2" y1="242" x2="748.6" y2="242"/>
	<line class="st0" x1="35.7" y1="213.4" x2="147.3" y2="213.4"/>
	<polygon class="st1" points="614.2,15.2 632.1,33.1 780.1,33.1 780.1,15.2 	"/>
	<polygon class="st1" points="614.2,15.2 632.1,33.1 780.1,33.1 780.1,15.2 	"/>
	<polygon class="st1" points="192.2,255.5 174.4,237.6 13.4,237.6 13.4,255.5 	"/>
	<line class="st2" x1="374.5" y1="129.7" x2="426.4" y2="129.7"/>
</g>
</svg>
